<svg width="32" height="32" viewBox="0 0 32 32" fill="none" xmlns="http://www.w3.org/2000/svg">
<path fill-rule="evenodd" clip-rule="evenodd" d="M10.4638 8.85002C9.5725 8.85002 8.84999 9.57253 8.84999 10.4638V21.3044C8.84999 22.1956 9.5725 22.9181 10.4638 22.9181H21.3043C22.1956 22.9181 22.9181 22.1956 22.9181 21.3044V15.8841C22.9181 15.4146 23.2987 15.0341 23.7681 15.0341C24.2376 15.0341 24.6181 15.4146 24.6181 15.8841V21.3044C24.6181 23.1345 23.1345 24.6181 21.3043 24.6181H10.4638C8.63362 24.6181 7.14999 23.1345 7.14999 21.3044V10.4638C7.14999 8.63365 8.63362 7.15002 10.4638 7.15002H19.8261C20.2955 7.15002 20.6761 7.53058 20.6761 8.00002C20.6761 8.46947 20.2955 8.85002 19.8261 8.85002H10.4638ZM25.601 7.89174C25.933 8.22368 25.933 8.76187 25.601 9.09382L16.4851 18.2098C16.1531 18.5417 15.615 18.5417 15.283 18.2098L12.3265 15.2532C11.9945 14.9213 11.9945 14.3831 12.3265 14.0512C12.6584 13.7192 13.1966 13.7192 13.5286 14.0512L15.8841 16.4066L24.399 7.89174C24.7309 7.55979 25.2691 7.55979 25.601 7.89174Z" fill="white"/>
</svg>
