<svg width="32" height="32" viewBox="0 0 32 32" fill="none" xmlns="http://www.w3.org/2000/svg">
<path fill-rule="evenodd" clip-rule="evenodd" d="M15.9996 7.85002C11.4985 7.85002 7.84961 11.4989 7.84961 16C7.84961 20.5011 11.4985 24.15 15.9996 24.15C20.5007 24.15 24.1496 20.5011 24.1496 16C24.1496 11.4989 20.5007 7.85002 15.9996 7.85002ZM6.14961 16C6.14961 10.56 10.5596 6.15002 15.9996 6.15002C21.4396 6.15002 25.8496 10.56 25.8496 16C25.8496 21.44 21.4396 25.85 15.9996 25.85C10.5596 25.85 6.14961 21.44 6.14961 16Z" fill="white"/>
<path fill-rule="evenodd" clip-rule="evenodd" d="M15.9996 14.5875C16.4691 14.5875 16.8496 14.9681 16.8496 15.4375V20.5C16.8496 20.9695 16.4691 21.35 15.9996 21.35C15.5302 21.35 15.1496 20.9695 15.1496 20.5V15.4375C15.1496 14.9681 15.5302 14.5875 15.9996 14.5875Z" fill="white"/>
<path fill-rule="evenodd" clip-rule="evenodd" d="M15.9996 11.2125C16.4691 11.2125 16.8496 11.5931 16.8496 12.0625V12.625C16.8496 13.0945 16.4691 13.475 15.9996 13.475C15.5302 13.475 15.1496 13.0945 15.1496 12.625V12.0625C15.1496 11.5931 15.5302 11.2125 15.9996 11.2125Z" fill="white"/>
</svg>
